HIERARCHY
ROOT Hips
{
	OFFSET 0.0000 0.0000 0.0000
	CHANNELS 6 Xposition Yposition Zposition Zrotation Xrotation Yrotation
	JOINT Spine1
	{
		OFFSET -0.0137 5.0038 -0.0537
		CHANNELS 3 Zrotation Xrotation Yrotation
		JOINT Spine2
		{
			OFFSET -0.0000 7.1253 -0.0298
			CHANNELS 3 Zrotation Xrotation Yrotation
			JOINT Chest
			{
				OFFSET -0.0000 7.5501 -0.8160
				CHANNELS 3 Zrotation Xrotation Yrotation
				JOINT Neck1
				{
					OFFSET -0.1817 26.3113 -0.5533
					CHANNELS 3 Zrotation Xrotation Yrotation
					JOINT Neck2
					{
						OFFSET -0.0000 7.7094 2.3026
						CHANNELS 3 Zrotation Xrotation Yrotation
						JOINT Head
						{
							OFFSET -0.0000 6.1289 1.9537
							CHANNELS 3 Zrotation Xrotation Yrotation
							JOINT Jaw
							{
								OFFSET 0.0026 0.4756 3.0949
								CHANNELS 3 Zrotation Xrotation Yrotation
								End Site
								{
									OFFSET 0.0 1.0 0.0
								}
							}
							JOINT LeftEye
							{
								OFFSET 3.2064 5.3802 7.5869
								CHANNELS 3 Zrotation Xrotation Yrotation
								End Site
								{
									OFFSET 0.0 1.0 0.0
								}
							}
							JOINT RightEye
							{
								OFFSET -3.2224 5.3619 7.5582
								CHANNELS 3 Zrotation Xrotation Yrotation
								End Site
								{
									OFFSET 0.0 1.0 0.0
								}
							}
						}
					}
				}
				JOINT LeftShoulder
				{
					OFFSET 1.6217 23.2372 5.1134
					CHANNELS 3 Zrotation Xrotation Yrotation
					JOINT LeftArm
					{
						OFFSET 14.9198 0.0000 -5.5023
						CHANNELS 3 Zrotation Xrotation Yrotation
						JOINT LeftForeArm
						{
							OFFSET 28.7393 0.0000 -0.0026
							CHANNELS 3 Zrotation Xrotation Yrotation
							JOINT LeftHand
							{
								OFFSET 27.0940 -0.0000 0.0026
								CHANNELS 3 Zrotation Xrotation Yrotation
								JOINT LeftHandThumbEnd
								{
									OFFSET 12.2686 -3.2202 4.8331
									CHANNELS 3 Zrotation Xrotation Yrotation
									End Site
									{
										OFFSET 0.0 1.0 0.0
									}
								}
								JOINT LeftHandMiddleEnd
								{
									OFFSET 19.0120 -0.3129 -0.0340
									CHANNELS 3 Zrotation Xrotation Yrotation
									End Site
									{
										OFFSET 0.0 1.0 0.0
									}
								}
							}
						}
					}
				}
				JOINT RightShoulder
				{
					OFFSET -1.3801 23.1803 5.2142
					CHANNELS 3 Zrotation Xrotation Yrotation
					JOINT RightArm
					{
						OFFSET -15.0372 0.0000 -5.5456
						CHANNELS 3 Zrotation Xrotation Yrotation
						JOINT RightForeArm
						{
							OFFSET -28.7366 0.0000 -0.0026
							CHANNELS 3 Zrotation Xrotation Yrotation
							JOINT RightHand
							{
								OFFSET -27.1336 -0.0000 0.0026
								CHANNELS 3 Zrotation Xrotation Yrotation
								JOINT RightHandThumbEnd
								{
									OFFSET -12.2642 -3.2115 4.8040
									CHANNELS 3 Zrotation Xrotation Yrotation
									End Site
									{
										OFFSET 0.0 1.0 0.0
									}
								}
								JOINT RightHandMiddleEnd
								{
									OFFSET -19.0006 -0.3066 -0.0316
									CHANNELS 3 Zrotation Xrotation Yrotation
									End Site
									{
										OFFSET 0.0 1.0 0.0
									}
								}
							}
						}
					}
				}
			}
		}
	}
	JOINT LeftLeg
	{
		OFFSET 10.0432 -8.4345 2.5957
		CHANNELS 3 Zrotation Xrotation Yrotation
		JOINT LeftShin
		{
			OFFSET -0.0000 -43.2218 -0.8029
			CHANNELS 3 Zrotation Xrotation Yrotation
			JOINT LeftFoot
			{
				OFFSET 0.0000 -42.1551 -3.4815
				CHANNELS 3 Zrotation Xrotation Yrotation
				JOINT LeftToeBase
				{
					OFFSET 0.0000 -5.0595 13.2315
					CHANNELS 3 Zrotation Xrotation Yrotation
					End Site
					{
						OFFSET 0.0 1.0 0.0
					}
				}
			}
		}
	}
	JOINT RightLeg
	{
		OFFSET -10.0473 -8.2953 2.6203
		CHANNELS 3 Zrotation Xrotation Yrotation
		JOINT RightShin
		{
			OFFSET 0.0000 -43.3622 -0.8056
			CHANNELS 3 Zrotation Xrotation Yrotation
			JOINT RightFoot
			{
				OFFSET 0.0000 -42.1174 -3.4784
				CHANNELS 3 Zrotation Xrotation Yrotation
				JOINT RightToeBase
				{
					OFFSET -0.0000 -5.0796 13.2842
					CHANNELS 3 Zrotation Xrotation Yrotation
					End Site
					{
						OFFSET 0.0 1.0 0.0
					}
				}
			}
		}
	}
}
MOTION
Frames: 8
Frame Time: 0.033333
-1.9768 85.8590 -6.9824 -0.5322 9.5906 0.6383 0.5575 12.6527 -0.1543 -0.2723 -0.2494 -0.2258 -0.9237 15.3069 -3.1490 -1.1559 0.2478 3.7321 -0.9107 -3.7438 0.0500 1.8553 -10.6787 -1.2437 -0.0041 -0.0710 0.0471 0.6712 -10.4183 -3.8012 -0.6839 -10.5306 3.8949 8.1402 9.3362 -20.9816 7.8060 -19.8587 -64.8351 0.6544 0.0584 -20.3815 -3.8100 5.0678 3.6129 -15.2414 10.9626 15.7744 -59.8765 1.6017 1.5594 -10.4697 11.0087 22.7630 0.5322 -19.6684 59.2564 0.0116 0.0374 13.2917 11.5654 -4.1201 -13.4989 15.2428 7.1446 -16.3201 49.0908 -4.0363 -5.5631 4.3281 -52.5026 30.4186 -0.9457 63.3182 -1.0508 -4.7327 -18.4043 -16.2326 1.6099 -0.0583 -1.8904 -6.8671 -50.4381 -23.3260 1.0064 62.2723 1.1452 9.0536 -20.6536 8.8014 -1.3954 0.5358 0.8765
-1.9907 85.2222 -6.9654 -0.4430 9.9298 0.5584 0.4540 12.9422 -0.1466 -0.2947 -0.1105 -0.3909 -1.1198 15.4040 -3.3758 -1.3627 0.5423 3.9362 -0.9015 -3.7373 0.0687 1.8333 -10.5005 -1.0363 -0.0146 -0.0680 0.0598 0.6698 -10.3924 -3.7952 -0.7026 -10.5110 3.9194 8.4415 9.7542 -21.5556 6.4095 -16.3812 -64.8406 0.5292 0.0487 -14.9048 -8.0871 7.4022 4.7021 -15.2280 10.8090 15.5380 -59.6358 1.6872 1.5439 -10.6700 10.6461 21.9438 2.0388 -19.5379 60.4916 -0.2490 0.0932 11.8446 12.1437 -4.2537 -14.3097 15.3641 7.2218 -16.1985 49.1847 -4.1067 -5.4743 4.0829 -53.5961 30.7439 -1.0417 64.7824 -1.1397 -4.4440 -18.9050 -16.5415 1.6139 -0.0779 -1.8526 -7.0170 -51.6569 -23.1462 1.0903 63.7972 1.2212 8.9699 -21.3026 8.9883 -1.4061 0.5571 0.8876
-1.9959 84.6578 -6.9411 -0.3969 10.1289 0.3143 0.3784 13.1563 -0.1951 -0.3325 0.0073 -0.4720 -1.2482 15.5419 -3.5270 -1.6338 0.8759 4.1055 -0.8405 -3.7380 0.0584 1.7484 -10.3851 -0.8192 -0.0281 -0.0607 0.0829 0.6612 -10.3673 -3.7690 -0.7206 -10.4863 3.9432 8.2373 9.9880 -21.8084 5.4221 -14.3502 -64.4098 0.3316 0.0040 -12.5046 -9.8105 8.8212 4.9527 -15.3142 10.6670 15.2954 -59.3616 1.6648 1.4463 -10.7125 10.3564 21.3746 3.0297 -19.9269 60.9844 -0.4540 0.1091 11.8563 11.2906 -4.8226 -14.7771 15.4918 7.2658 -16.0975 49.2221 -4.0887 -5.3932 4.0215 -54.4209 30.9474 -1.0901 66.0788 -1.1629 -4.2436 -19.4422 -16.6282 1.6208 -0.0385 -1.8208 -7.1613 -52.6412 -22.9943 1.1565 65.1013 1.2583 8.9290 -21.7869 9.2629 -1.4129 0.5541 0.8882
-1.9694 84.1321 -6.8742 -0.3456 10.1572 -0.0527 0.3232 13.3309 -0.1978 -0.3530 0.0720 -0.5303 -1.3348 15.6784 -3.5810 -1.9866 1.3229 4.2279 -0.7598 -3.7537 0.0715 1.6571 -10.3516 -0.6034 -0.0377 -0.0530 0.1002 0.6582 -10.3562 -3.7474 -0.7373 -10.4721 3.9603 7.9879 10.0814 -21.7673 4.6700 -13.7094 -64.0642 0.2536 -0.0215 -11.7798 -10.1422 9.5190 5.2630 -15.4669 10.6252 15.1526 -59.2960 1.6116 1.3186 -10.7422 10.2148 21.0834 3.7122 -20.2916 60.9598 -0.3825 0.0993 12.5030 10.3383 -5.3625 -14.9485 15.5244 7.2711 -16.0194 49.1842 -4.0208 -5.3223 4.1012 -54.9753 31.0776 -1.1573 67.2619 -1.2135 -4.0885 -19.9959 -16.5670 1.6254 -0.0068 -1.8049 -7.3767 -53.4351 -22.7821 1.1829 66.3241 1.2477 8.8694 -22.2329 9.6126 -1.4181 0.5588 0.8996
-1.9478 83.6952 -6.8205 -0.2837 10.0621 -0.4213 0.2917 13.4422 -0.2174 -0.3712 0.0823 -0.5411 -1.4100 15.8034 -3.5607 -2.3805 1.8151 4.2795 -0.6520 -3.7663 0.0889 1.6135 -10.4046 -0.3657 -0.0490 -0.0490 0.1127 0.6495 -10.3454 -3.7335 -0.7519 -10.4541 3.9746 7.7921 10.0545 -21.5004 4.0687 -13.7336 -63.9230 0.2709 -0.0123 -12.0683 -10.0522 9.6699 5.6316 -15.6397 10.5904 15.1144 -59.2873 1.5201 1.3018 -10.7220 10.1839 20.8843 4.2868 -20.3645 60.5990 -0.1525 0.1062 13.7625 9.8034 -5.8228 -15.0276 15.4811 7.2513 -15.9881 49.0910 -3.9416 -5.2969 4.3028 -55.2793 31.0944 -1.1906 68.2492 -1.2402 -3.9875 -20.4804 -16.4009 1.6253 -0.0032 -1.7995 -7.6259 -53.9705 -22.6058 1.2263 67.2897 1.2909 8.7801 -22.6289 9.9438 -1.4190 0.5860 0.9025
-1.8886 83.3976 -6.7336 -0.2373 9.8940 -0.8855 0.2660 13.4716 -0.2061 -0.3693 0.0585 -0.5614 -1.4937 15.9518 -3.5032 -2.7605 2.2818 4.2974 -0.5845 -3.7447 0.2109 1.6115 -10.5015 -0.2069 -0.0615 -0.0466 0.1236 0.6367 -10.3407 -3.7192 -0.7644 -10.4413 3.9865 7.6122 9.9688 -21.0302 3.5975 -14.2758 -63.7937 0.2572 0.0109 -13.2199 -9.5755 9.3832 6.0809 -15.7949 10.5821 15.1640 -59.4200 1.4884 1.3912 -10.6160 10.3136 20.6962 4.7867 -20.3115 59.9668 0.1639 0.1235 15.7873 9.3449 -6.3617 -15.1709 15.4412 7.2090 -15.9573 49.0190 -3.8724 -5.3113 4.5792 -55.3469 31.1060 -1.1975 68.9840 -1.2564 -3.9671 -20.8693 -16.2592 1.6198 -0.0145 -1.8063 -7.8472 -54.2908 -22.3753 1.2427 67.9705 1.3192 8.6495 -22.8560 10.2998 -1.4182 0.5566 0.9070
-1.8465 83.2653 -6.6096 -0.2322 9.6753 -1.3676 0.2483 13.4304 -0.2123 -0.3839 0.0231 -0.5549 -1.5602 16.0750 -3.4291 -3.0750 2.7335 4.2609 -0.5332 -3.7185 0.3956 1.6323 -10.6702 -0.0891 -0.0725 -0.0460 0.1336 0.6243 -10.3279 -3.7010 -0.7748 -10.4232 3.9931 7.4302 9.8907 -20.4558 3.1619 -14.9941 -63.6226 0.2452 0.0656 -14.8483 -8.9428 8.9222 6.5110 -15.9265 10.5971 15.2602 -59.5707 1.4940 1.4753 -10.4632 10.5152 20.4717 5.4177 -20.0562 59.1097 0.4146 0.1420 18.4034 8.7557 -6.6611 -15.3300 15.4417 7.1719 -15.9232 49.0168 -3.8156 -5.3463 4.9333 -55.1646 31.1037 -1.1807 69.3421 -1.2546 -4.0041 -21.1404 -16.1507 1.6173 -0.0197 -1.8148 -7.9590 -54.3133 -22.1890 1.2548 68.2475 1.3478 8.5403 -22.9501 10.6491 -1.4156 0.5493 0.9135
-1.8088 83.2890 -6.4988 -0.2803 9.4297 -1.8771 0.2221 13.3302 -0.2337 -0.3940 -0.0342 -0.5525 -1.6130 16.2106 -3.3461 -3.3138 3.1661 4.2442 -0.5300 -3.6914 0.5491 1.6663 -10.9317 -0.0398 -0.0802 -0.0411 0.1376 0.6169 -10.3207 -3.6910 -0.7832 -10.4114 3.9941 7.2081 9.8458 -19.8473 2.7812 -15.6571 -63.2377 0.1629 0.1244 -16.8068 -8.2294 8.3718 6.8198 -15.9711 10.6449 15.3734 -59.6957 1.5052 1.5362 -10.2511 10.7198 20.1528 6.2089 -19.7233 57.9517 0.6611 0.1430 21.7419 7.8746 -6.7677 -15.5458 15.4557 7.1517 -15.9170 49.0621 -3.7808 -5.3561 5.3642 -54.7897 31.0970 -1.1640 69.3511 -1.2605 -4.1492 -21.2867 -16.0310 1.6162 -0.0287 -1.8185 -7.9557 -54.0639 -22.0755 1.2380 68.1696 1.3428 8.4313 -22.9294 10.9778 -1.4143 0.5429 0.9241
